# Blender v2.77 (sub 0) OBJ File: 'box.blend'
# www.blender.org
mtllib box.mtl
o Cube
v 1.000000 -1.000000 -1.000000
v 1.000000 -1.000000 1.000000
v -1.000000 -1.000000 1.000000
v -1.000000 -1.000000 -1.000000
v 1.000000 1.000000 -0.999999
v 0.999999 1.000000 1.000001
v -1.000000 1.000000 1.000000
v -1.000000 1.000000 -1.000000
vt 0.2811 0.3566
vt 0.5205 0.3566
vt 0.5185 0.6539
vt 0.2831 0.6477
vt 0.2829 0.3514
vt 0.5185 0.6486
vt 0.2790 0.0472
vt 0.2808 0.3512
vt 0.5163 0.3517
vt 0.5216 0.3538
vt 0.5210 0.6493
vt 0.7572 0.6504
vt 0.2790 0.6503
vt 0.5164 0.3461
vt 0.5164 0.6513
vt 0.5187 0.3592
vt 0.7541 0.3566
vt 0.7541 0.6591
vt 0.2790 0.6503
vt 0.2787 0.3540
vt 0.5205 0.6513
vt 0.2831 0.3514
vt 0.5185 0.3514
vt 0.5185 0.6513
vt 0.2806 0.0512
vt 0.5144 0.0504
vt 0.5141 0.3510
vt 0.5187 0.3566
vt 0.7520 0.3540
vt 0.7520 0.6565
vt 0.2811 0.6529
vt 0.5205 0.3540
vt 0.2808 0.3523
vt 0.5187 0.6477
vt 0.5185 0.3645
vt 0.7541 0.6486
vn 0.0000 -1.0000 0.0000
vn 0.0000 1.0000 0.0000
vn 1.0000 0.0000 0.0000
vn -0.0000 0.0000 1.0000
vn -1.0000 -0.0000 -0.0000
vn 0.0000 0.0000 -1.0000
usemtl Material
s off
f 2/1/1 3/2/1 4/3/1
f 8/4/2 7/5/2 6/6/2
f 5/7/3 6/8/3 2/9/3
f 6/10/4 7/11/4 3/12/4
f 3/13/5 7/14/5 8/15/5
f 1/16/6 4/17/6 8/18/6
f 1/19/1 2/20/1 4/21/1
f 5/22/2 8/23/2 6/24/2
f 1/25/3 5/26/3 2/27/3
f 2/28/4 6/29/4 3/30/4
f 4/31/5 3/32/5 8/33/5
f 5/34/6 1/35/6 8/36/6
